# xmcd CD database file
#
# Track frame offsets:
#	150
#	12950
#	24392
#	40260
#	54332
#	72205
#	84642
#	101247
#	113112
#	127795
#	140232
#	156907
#	171155
#	184945
#
# Disc length: 2666 seconds
#
# Revision: 0
# Processed by: cddbd v1.4PL0 Copyright (c) Steve Scherf et al.
# Submitted via: cdripper 1.0.1
#
DISCID=bc0a680e
DTITLE=Mats Rådberg and Rankarna - Mats Rådberg and Rankarna
DYEAR=1990
DGENRE=Country
TTITLE0=En Sjömanshustrus Ballad
TTITLE1=Bright Lights And Country
TTITLE2=Precis Som Jag Är
TTITLE3=Klia Mig På Ryggen
TTITLE4=Trubbel, Bekymmer Och Besvär
TTITLE5=Säg Aldrig Nej Till En Grabb Med Gitarr
TTITLE6=Roses In December
TTITLE7=Bra Drag
TTITLE8=Grabbar and Tjejer
TTITLE9=Too Soon To Know
TTITLE10=När Vi Dansar
TTITLE11=What Love Can Do
TTITLE12=En Skön Värld (Med Allt Att Vinna)
TTITLE13=Ryttare På Vägen
EXTD=YEAR: 1990
EXTT0=
EXTT1=
EXTT2=
EXTT3=
EXTT4=
EXTT5=
EXTT6=
EXTT7=
EXTT8=
EXTT9=
EXTT10=
EXTT11=
EXTT12=
EXTT13=
PLAYORDER=
